<?xml version="1.0" encoding="UTF-8"?>
<svg id="Layer_1" xmlns="http://www.w3.org/2000/svg" version="1.1" viewBox="0 0 2256.5 960.1">
  <!-- Generator: Adobe Illustrator 29.4.0, SVG Export Plug-In . SVG Version: 2.1.0 Build 152)  -->
  <defs>
    <style>
      .st0 {
        fill: #fff;
      }

      .st1 {
        fill: #565656;
      }

      .st2 {
        fill: #0c4c59;
      }
    </style>
  </defs>
  <g>
    <g>
      <path class="st0" d="M1103.5,100c-2.8-8.8-10.3-14.7-18.7-14.7h-60c-8.4,0-15.9,5.9-18.7,14.7l-62.6,193.8c-.9-9.1-2.7-17.4-5.4-24.7-3.8-10.4-8-18.9-12.8-26,0-.1-.1-.2-.2-.3-1.2-1.7-2.5-3.4-3.7-5,2.8-5.6,5.3-12,7.6-19.8,2.7-9,4.1-19.2,4.1-31.1s-2.7-31.2-8.1-44c-5.4-12.9-13.1-23.8-22.8-32.6-9.4-8.4-20.7-14.8-33.5-19-12.2-3.9-25.6-5.9-39.9-5.9h-97.9c-11,0-19.9,9.9-19.9,22.2v213l-71.2-220.5c-2.8-8.8-10.3-14.7-18.7-14.7h-60c-8.4,0-15.9,5.9-18.7,14.7l-63.3,195.8c-1-7.5-2.7-14.6-5-21.3-3.9-11.6-8.8-22.2-14.6-31.6-5.7-9.2-12-17.5-18.9-24.8-2.5-2.6-4.9-5.1-7.2-7.4.3,0,.6,0,.9,0,4.8,0,9.5-1.9,13.2-5.5,4.3-4.2,6.8-10.3,6.8-16.7v-82.4c0-11-7.2-20.3-17-22-5.3-.9-10.7-1.8-16.3-2.7-.2,0-.4,0-.6,0l-16.2-2c-6.7-.8-13.5-1.2-20.2-1.2-13.5,0-26.5,2.2-38.6,6.6-12.5,4.6-23.7,11.3-33.1,20.2-9.8,9.2-17.5,20.7-23,34.3-5.4,13.4-8.1,28.8-8.1,45.6s2.3,29.1,6.7,41.2c4.2,11.4,9.6,21.9,16.1,31.1,6.1,8.7,12.9,16.6,19.9,23.4,6,5.8,11.8,11.2,17.2,16.1-.9-.1-1.7-.2-2.5-.3-5.5-.8-10.3-1.8-14.4-3-.5-.2-1.1-.3-1.7-.4-5-1-9.8-2.3-14.4-4-2.1-.8-4.2-1.1-6.3-1.1-4.1,0-8.2,1.4-11.6,4.2-5.2,4.2-8.3,10.9-8.3,18v88.1c0,9.8,5.7,18.4,14.1,21.2,6.6,2.3,14,4.2,21.9,5.9,6.8,1.6,14.5,2.9,23.2,4,8.8,1.1,18.5,1.7,28.7,1.7,18.1,0,34.2-2.9,47.9-8.7,11-4.6,20.6-10.7,28.7-18.2.4,3.5,1.6,6.9,3.5,9.9,3.7,5.9,9.8,9.4,16.3,9.4h78.8c8.5,0,16-6,18.8-14.9l3.6-11.5h47.5l3.6,11.5c2.8,8.9,10.3,14.9,18.8,14.9h78.8c2.6,0,5.1-.6,7.5-1.6,2.3,1,4.8,1.6,7.5,1.6h102c16.1,0,31-2.5,44.4-7.5,12.9-4.8,24.2-11.8,33.6-20.8-1.7,6.4-.6,13.4,2.8,18.9,3.7,5.9,9.8,9.4,16.3,9.4h78.8c8.5,0,16-6,18.8-14.9l3.6-11.5h47.5l3.6,11.5c2.8,8.9,10.3,14.9,18.8,14.9h78.8c6.5,0,12.6-3.5,16.3-9.4,3.7-5.9,4.6-13.5,2.4-20.3l-94.9-293.8h0Z"/>
      <path class="st0" d="M1969.3,274.6c-3.9-11.6-8.8-22.2-14.6-31.6-5.7-9.2-12-17.5-18.9-24.8-2.5-2.6-4.9-5.1-7.2-7.4.3,0,.6,0,.9,0,4.8,0,9.5-1.9,13.2-5.5,4.3-4.2,6.8-10.3,6.8-16.7v-82.4c0-11-7.2-20.3-17-22-5.3-.9-10.7-1.8-16.3-2.7-.2,0-.4,0-.6,0l-16.2-2c-6.7-.8-13.5-1.2-20.2-1.2-13.5,0-26.5,2.2-38.6,6.6-12.5,4.6-23.7,11.3-33.1,20.2-7.2,6.8-13.4,14.9-18.3,24.2v-21.7c0-12.3-8.9-22.2-19.9-22.2h-80.3c-11,0-19.9,9.9-19.9,22.2v182.8c0,5.2-.6,8-1.1,9.3-.6.1-1.4.2-2.7.2s-2.1-.1-2.7-.2c-.5-1.5-1.1-4.4-1.1-9.3V107.6c0-12.3-8.9-22.2-19.9-22.2h-79.9c-3.9,0-7.6,1.3-10.7,3.5-3.1-2.2-6.8-3.5-10.7-3.5h-174.8c-1.6,0-3.2.2-4.7.6-1.5-.4-3.1-.6-4.7-.6h-174.8c-11,0-19.9,9.9-19.9,22.2v77.1c0,12.3,8.9,22.2,19.9,22.2h26.2v194.5c0,12.3,8.9,22.2,19.9,22.2h82.5c11,0,19.9-9.9,19.9-22.2v-194.5h26.2c1.6,0,3.2-.2,4.7-.6,1.5.4,3.1.6,4.7.6h26.2v194.5c0,12.3,8.9,22.2,19.9,22.2h82.5c11,0,19.9-9.9,19.9-22.2v-194.5h26.2c.5,0,1,0,1.5,0v87.5c0,22,2.9,41.7,8.6,58.5,5.9,17.5,14.6,32.4,25.8,44,11.1,11.6,24.5,20.3,40,26,14.7,5.4,31.2,8.2,49,8.2s34.3-2.8,49-8.2c15.4-5.7,28.9-14.4,40.1-25.9,9.3-9.6,16.9-21.4,22.7-35v36.3c0,9.8,5.7,18.4,14.1,21.2,6.6,2.3,14,4.2,21.9,5.9,6.8,1.6,14.5,2.9,23.2,4,8.8,1.1,18.5,1.7,28.7,1.7,18.1,0,34.2-2.9,47.9-8.7,14.2-6,26.1-14.4,35.5-25,9.4-10.7,16.5-23.4,20.9-37.8,4.2-13.6,6.3-28.2,6.3-43.6s-2.1-28.9-6.4-41.3h0ZM1833.8,296.5c-5.5-.8-10.3-1.8-14.4-3-.6-.2-1.1-.3-1.7-.4-5-1-9.8-2.3-14.3-4-2.1-.8-4.2-1.1-6.3-1.1s-5.4.6-7.8,1.8v-49.3c3,6,6.3,11.6,10,16.9,6.2,8.7,12.9,16.6,19.9,23.4,6,5.8,11.8,11.2,17.2,16.1-.8-.1-1.7-.2-2.5-.3h0Z"/>
    </g>
    <g>
      <path class="st2" d="M301.5,310.1c5.5,2.1,11.2,3.7,17.3,4.8,5,1.5,10.7,2.6,17.1,3.5,6.4.9,12.8,1.3,19.3,1.3,11.5,0,17.3-5,17.3-15s-1.8-7.7-5.2-11.7c-3.5-4-7.9-8.4-13.3-13.2s-11.1-10.2-17.2-16.1c-6.1-5.9-11.9-12.6-17.3-20.3-5.4-7.6-9.8-16.2-13.3-25.8-3.5-9.5-5.2-20.5-5.2-32.8s2.1-26,6.4-36.6c4.2-10.6,10.1-19.4,17.6-26.4,7.5-7.1,16.3-12.4,26.4-16.1,10.1-3.7,20.9-5.5,32.5-5.5s12,.4,18,1.1c6,.7,11.4,1.4,16.1,2,5.5.9,10.9,1.8,16.1,2.6v82.4c-2-.3-4.2-.6-6.8-.9-2-.3-4.2-.6-6.8-.9-2.5-.3-5.1-.4-7.9-.4s-3.4,0-5.6.2-4.4.5-6.4,1.1c-2,.6-3.8,1.6-5.2,3.1-1.5,1.5-2.2,3.5-2.2,6.2s1.7,5.3,5.1,8.8c3.4,3.5,7.5,7.6,12.4,12.3,4.9,4.7,10.2,10.1,16.1,16.3,5.9,6.2,11.2,13.2,16.1,21.1,4.9,7.9,9,16.9,12.4,26.9,3.4,10,5.1,21.1,5.1,33.5s-1.8,25-5.2,36.3c-3.5,11.3-8.9,21.1-16.3,29.5s-16.8,15-28.3,19.8c-11.5,4.9-25.1,7.3-40.9,7.3s-18.3-.5-26.4-1.5c-8.1-1-15.3-2.3-21.6-3.7-7.3-1.5-13.9-3.2-19.9-5.3v-88.1h0ZM333,363c3.5.9,7.2,1.6,11.2,2.2,3.5.6,7.2,1.1,11.1,1.5,3.9.4,7.8.7,11.8.7,7,0,13.8-1,20.4-2.9,6.6-1.9,12.6-5.1,17.8-9.5,5.2-4.4,9.4-10.1,12.6-17,3.1-6.9,4.7-15.3,4.7-25.3s-1.8-16.6-5.4-24.2c-3.6-7.6-8.2-15-13.9-22s-11.6-13.8-18-20.3c-6.4-6.5-12.4-13-18-19.6s-10.3-13.2-13.9-19.8c-3.6-6.6-5.4-13.4-5.4-20.5,0-10.6,2.9-18.7,8.6-24.4,5.8-5.7,15-8.6,27.8-8.6s4.1,0,6.2.2c2.1.1,4.2.4,6.2.7,2,.3,4,.4,6,.4v-11.4c-1.8,0-3.6-.1-5.6-.4-1.8-.3-3.7-.5-5.8-.7-2.1-.1-4.3-.2-6.6-.2-13.5,0-24.6,3.6-33.4,10.8-8.8,7.2-13.1,18.4-13.1,33.7s1.8,15.9,5.4,23.1c3.6,7.2,8.2,14.2,13.9,21.1s11.6,13.6,18,20c6.4,6.5,12.4,13,18,19.6,5.6,6.6,10.2,13.4,13.9,20.5,3.6,7,5.4,14.4,5.4,22,0,14.1-4.1,24.8-12.2,32.1-8.1,7.3-19.3,11-33.6,11s-16.3-.7-23.3-2.2c-3.8-.6-7.4-1.3-10.9-2.2v11.5h0Z"/>
      <path class="st2" d="M560.7,107.6h60l94.9,293.8h-78.8l-8.2-26.4h-75.8l-8.2,26.4h-78.8l94.9-293.8ZM521.7,366.1l7.1-22h123.8l7.1,22h10.5l-72.4-223.3h-14.2l-72.4,223.3h10.5,0ZM590.7,153.4l58.5,180.1h-117l58.5-180.1h0ZM607.6,310.1l-16.9-51.5-16.9,51.5h33.8Z"/>
      <path class="st2" d="M730.6,107.6h97.9c12.5,0,23.9,1.7,34.3,5.1,10.4,3.4,19.2,8.4,26.6,15,7.4,6.6,13.1,14.8,17.3,24.7,4.1,9.8,6.2,21.4,6.2,34.6s-1,17.4-3,24c-2,6.6-4.1,12.1-6.4,16.5-2.8,5.3-5.9,9.7-9.4,13.2,5.5,4.1,10.5,9.4,15,15.9,3.8,5.6,7.2,12.6,10.3,21.1,3.1,8.5,4.7,18.9,4.7,31.3s-2.1,26.9-6.4,38.3-10.3,21.2-18.2,29.3c-7.9,8.1-17.5,14.2-28.9,18.5-11.4,4.3-24.1,6.4-38.1,6.4h-102V107.6h0ZM822.2,366.1c22,0,38.3-5.6,48.8-16.7,10.5-11.1,15.8-26,15.8-44.5s-2.2-21.6-6.6-28.9c-4.4-7.2-9.1-12.8-14.1-17-6.2-4.7-13.1-7.9-20.6-9.7,6-2.1,11.4-5.3,16.1-9.7,4.2-3.8,8.1-9,11.4-15.6,3.4-6.6,5.1-15,5.1-25.3,0-18.5-5-32.4-15-41.8-10-9.4-23.6-14.1-40.9-14.1h-54v223.3h54ZM777.9,244.1v-90.7h44.3c16.2,0,27.9,4.2,35.1,12.6,7.1,8.4,10.7,19.3,10.7,32.8s-3.6,24.4-10.7,32.8-18.8,12.6-35.1,12.6h-44.3ZM777.9,355.5v-100.9h43.9c7.8,0,14.9,1,21.6,2.9,6.6,1.9,12.4,4.9,17.4,8.8s8.9,9.2,11.8,15.6c2.9,6.5,4.3,14.1,4.3,22.9,0,17.9-5.1,30.8-15.2,38.8-10.1,7.9-23.4,11.9-40,11.9h-43.9ZM835.7,197c0-13.5-6.2-20.3-18.8-20.3h-9v40.5h9c12.5,0,18.8-6.8,18.8-20.3h0ZM816.9,332.2c19,0,28.5-8.5,28.5-25.5s-9.5-25.5-28.5-25.5h-9v51.1h9Z"/>
      <path class="st2" d="M1024.7,107.6h60l94.9,293.8h-78.8l-8.2-26.4h-75.8l-8.2,26.4h-78.8l94.9-293.8h0ZM985.7,366.1l7.1-22h123.8l7.1,22h10.5l-72.4-223.3h-14.2l-72.4,223.3h10.5,0ZM1054.7,153.4l58.5,180.1h-117l58.5-180.1h0ZM1071.6,310.1l-16.9-51.5-16.9,51.5h33.8Z"/>
      <path class="st2" d="M1227.6,184.6h-46.1v-77.1h174.8v77.1h-46.1v216.7h-82.5v-216.7ZM1273.8,366.1v-212.7h53.6v-10.6h-117v10.6h53.6v212.7h9.8Z"/>
      <path class="st2" d="M1411.8,184.6h-46.1v-77.1h174.8v77.1h-46.1v216.7h-82.5v-216.7ZM1458,366.1v-212.7h53.6v-10.6h-117v10.6h53.6v212.7h9.8Z"/>
      <path class="st2" d="M1665.4,408.8c-15.8,0-30-2.4-42.8-7-12.8-4.7-23.6-11.7-32.6-21.1-9-9.4-15.9-21.3-20.8-35.7-4.9-14.4-7.3-31.3-7.3-50.6V107.6h79.9v182.8c0,10.3,1.8,18.1,5.4,23.6,3.6,5.4,9.7,8.1,18.2,8.1s14.6-2.7,18.2-8.1c3.6-5.4,5.4-13.3,5.4-23.6V107.6h80.3v186.7c0,19.4-2.4,36.3-7.3,50.6-4.9,14.4-11.9,26.3-21,35.7-9.1,9.4-20.1,16.5-32.8,21.1s-27,7-42.8,7h0ZM1665.4,356c-37.5,0-56.3-21.6-56.3-64.7v-148.4h-9.8v148.4c0,24.7,5.7,43.5,17.1,56.6,11.4,13.1,27.7,19.6,48.9,19.6s37.6-6.5,49.1-19.6c11.5-13.1,17.3-31.9,17.3-56.6v-148.4h-10.1v148.4c0,43.2-18.8,64.7-56.3,64.7h0Z"/>
      <path class="st2" d="M1797,310.1c5.5,2.1,11.2,3.7,17.3,4.8,5,1.5,10.7,2.6,17.1,3.5,6.4.9,12.8,1.3,19.3,1.3,11.5,0,17.2-5,17.2-15s-1.8-7.7-5.2-11.7c-3.5-4-7.9-8.4-13.3-13.2s-11.1-10.2-17.2-16.1c-6.1-5.9-11.9-12.6-17.3-20.3-5.4-7.6-9.8-16.2-13.3-25.8-3.5-9.5-5.2-20.5-5.2-32.8s2.1-26,6.4-36.6c4.2-10.6,10.1-19.4,17.6-26.4,7.5-7.1,16.3-12.4,26.4-16.1,10.1-3.7,20.9-5.5,32.4-5.5s12,.4,18,1.1c6,.7,11.4,1.4,16.1,2,5.5.9,10.9,1.8,16.1,2.6v82.4c-2-.3-4.2-.6-6.8-.9-2-.3-4.2-.6-6.8-.9-2.5-.3-5.1-.4-7.9-.4s-3.4,0-5.6.2-4.4.5-6.4,1.1c-2,.6-3.8,1.6-5.2,3.1-1.5,1.5-2.2,3.5-2.2,6.2s1.7,5.3,5.1,8.8c3.4,3.5,7.5,7.6,12.4,12.3,4.9,4.7,10.2,10.1,16.1,16.3,5.9,6.2,11.2,13.2,16.1,21.1,4.9,7.9,9,16.9,12.4,26.9,3.4,10,5.1,21.1,5.1,33.5s-1.8,25-5.2,36.3c-3.5,11.3-8.9,21.1-16.3,29.5s-16.8,15-28.3,19.8c-11.5,4.9-25.1,7.3-40.9,7.3s-18.3-.5-26.4-1.5c-8.1-1-15.3-2.3-21.6-3.7-7.3-1.5-13.9-3.2-19.9-5.3v-88.1h0ZM1828.5,363c3.5.9,7.2,1.6,11.2,2.2,3.5.6,7.2,1.1,11.1,1.5,3.9.4,7.8.7,11.8.7,7,0,13.8-1,20.4-2.9,6.6-1.9,12.6-5.1,17.8-9.5s9.4-10.1,12.6-17c3.1-6.9,4.7-15.3,4.7-25.3s-1.8-16.6-5.4-24.2c-3.6-7.6-8.2-15-13.9-22s-11.6-13.8-18-20.3c-6.4-6.5-12.4-13-18-19.6s-10.3-13.2-13.9-19.8c-3.6-6.6-5.4-13.4-5.4-20.5,0-10.6,2.9-18.7,8.6-24.4,5.8-5.7,15-8.6,27.8-8.6s4.1,0,6.2.2c2.1.1,4.2.4,6.2.7,2,.3,4,.4,6,.4v-11.4c-1.8,0-3.6-.1-5.6-.4-1.8-.3-3.7-.5-5.8-.7-2.1-.1-4.3-.2-6.6-.2-13.5,0-24.6,3.6-33.4,10.8-8.8,7.2-13.1,18.4-13.1,33.7s1.8,15.9,5.4,23.1c3.6,7.2,8.2,14.2,13.9,21.1s11.6,13.6,18,20c6.4,6.5,12.4,13,18,19.6,5.6,6.6,10.2,13.4,13.9,20.5,3.6,7,5.4,14.4,5.4,22,0,14.1-4.1,24.8-12.2,32.1-8.1,7.3-19.3,11-33.6,11s-16.3-.7-23.3-2.2c-3.8-.6-7.4-1.3-10.9-2.2v11.5h0Z"/>
    </g>
  </g>
  <g>
    <path class="st0" d="M530.4,580.5c5.3.4,10.4.6,15.1.6,10.9,0,20.7-1.3,29.2-4,8.3-2.6,16.3-6.2,24-10.9.5-.3.9-.6,1.4-.9,27.9-20.5,31.9-44.1,30.4-60.3,0-.4,0-.8-.2-1.2-2.6-17.5-10.6-32.4-23.2-42.9-9-7.5-18.1-13.3-27-17.1-1.2-.7-2.5-1.3-3.9-1.8-10.2-3.3-21-4.9-32.3-4.9s-21.3,1.2-33,3.5c-12.2,2.5-24.1,6.8-35.6,12.8-11.7,6.1-22.8,14.4-33.2,24.7-7.1,7.1-13.4,15.3-18.8,24.6-.9-.2-3-.8-3.2-.8-5.1-1.1-10.5-2.4-16.2-3.9-5.2-1.3-10.5-3.1-15.8-5.1-.4-.1-.7-.3-1.1-.4-21.7-7-43.5-14-65.6-21.1-22.7-7.4-45.9-13.2-68.8-17.4-18.3-3.3-36.9-5-55.3-5s-10.6.1-15.9.4c-24.5,1.3-49.1,7.2-73.1,17.8-8.9,3.9-17.2,9.4-24.7,16.2-7.3,6.6-13.4,13.8-18.3,21.4-5.3,8.3-9,16.9-10.8,25.5-3.1,14.5.3,24.9,3.7,31.1,0,.1.1.2.2.3,5,8.8,13,13.9,21.9,13.9s5.1-.4,7.6-1.2c8-2.6,14.6-8.5,18.9-17.1.2-.4.3-.7.5-1.1,4.8-10.9,11.1-19.1,19.3-25.3,8.9-6.7,19.4-11.7,31.2-14.7,11.3-2.9,23.7-4.4,36.8-4.4s2.8,0,4.2,0c15.6.4,31.9,1.9,48.3,4.4,16.6,2.6,33.6,6.1,50.3,10.4,17.1,4.4,33.8,8.7,49.6,12.9l55.8,17.7c1,.6,2.1,1.2,3.3,1.6-.3,5.9-.3,11.6.1,17.2.8,11.5,2.7,23.2,5.7,34.6,2.9,11,6.7,22.3,11.2,33.5.2.5.4.9.6,1.4-8.4-3.4-17-6-25.8-7.8-10.5-2.2-22.2-3.3-34.9-3.3s-33.1,3.1-49.5,9.3c-18.6,7.2-35.4,18.2-49.8,32.8-11.7,11.6-21.1,24-27.9,37-6.8,13-11.9,28.2-15.1,44.9-4.6,22.9-4.3,44.4.9,63.9,5.1,19.2,13.8,36.1,26,50.2,12,13.9,27.1,24.8,45,32.6,17.3,7.5,36.7,11.5,57.7,11.9,1.1,0,2.3,0,3.4,0,36.9,0,69.4-6.5,96.5-19.5,29.1-13.9,51.8-34.4,67.4-61,15.5-26.5,23.6-58.6,24-95.4.4-35.5-7.5-75.4-23.6-118.6-3-8.2-6-16.5-8.6-24.7-2.3-7-4.3-13.6-6-19.8,3.1.3,6.5.5,10.1.8,6,.8,11.7,1.4,16.8,1.8h0ZM531.1,520.1c7.9-4.9,15.9-7.3,24.4-7.3s5.4.5,8.3,1.4c2.1.7,4,1.6,5.7,2.8-1.6.9-3.7,1.9-6.6,2.9-3.4.6-7.7,1.1-12.8,1.6-5.7.5-12.2.8-19.4.8s-2,0-3.1,0c1.1-.7,2.2-1.4,3.3-2.1h0ZM434.9,800c-9,15.2-21.8,26.5-39,34.3-10.5,4.8-22.5,7.2-35.8,7.2s-17.8-1-27.6-3c-7.9-1.5-15.5-4.5-22.6-8.9-7-4.3-13.2-9.8-18.2-16.3-4.9-6.2-8.4-13.3-10.7-21.4-2.2-7.8-2.7-16.1-1.4-25.7,1.6-12.3,5.8-23,12.8-32.7,7.7-10.5,16.9-19.3,27.5-26,10.6-6.7,22.3-11.2,34.8-13.3,4.3-.7,8.5-1.1,12.7-1.1,7.3,0,14.4,1.2,21.2,3.4,8.1,3.2,14.8,7.7,20.4,13.6,5.3,5.6,9.6,13.5,12.7,23.6.3.9.6,1.8,1,2.7,3.8,8.4,9.9,14.4,17.6,17.2,2.6,1,5.4,1.5,8.1,1.5s.5,0,.8,0c-1.9,17.1-6.6,31.9-14.3,44.9h0Z"/>
    <path class="st0" d="M2207.1,568.3c-3.4-14.4-10.7-21.9-16.2-25.6-.1,0-.2-.1-.3-.2-4.3-2.8-8.8-4.1-13.4-4.1-6.6,0-13,2.9-17.9,8.3-6,6.5-9.3,15.1-9.6,25,0,.4,0,.8,0,1.2.3,12.1-1.8,22.7-6.5,32.4-5.1,10.6-12.3,20.5-21.4,29.2-9.7,9.3-21.3,17.8-34.5,25.2-13.9,7.8-28.9,14.9-44.6,21.2-15.8,6.3-32.3,12-48.8,16.9-16.8,5-33.4,9.8-49.3,14.3l-6.4,1.5c-.9-.1-1.8-.2-2.8-.2-3.1,0-6.6.6-11.1,2-.5,0-1.5.2-3.3.2-3.9.2-8.2.5-12.9.9-3.4.3-6.9.5-10.4.5-.5-1.2-1-2.4-1.5-3.6-2.6-6.4-4.8-11.9-6.5-16.4,0,0-4.5-11.5-4.5-11.5,3.9,3.5,8.9,5.5,14.2,5.5s1.2,0,1.7,0c4.9-.4,12.2-2.5,19.4-10.1,5.6-5.5,13.6-17.2,11.1-37.8-.6-5.4-2-10.7-4.1-15.7-2.2-5.3-5.5-10.3-10-15.3-.4-.5-.8-.9-1.3-1.3-6.8-6.3-15.3-11-25.9-14.5-5.6-1.8-11.7-2.7-18.2-2.7s-13.4.9-20.9,2.5c-.2,0-.4,0-.6.2-9.7,2.5-18.3,6.6-25.7,12.2-7.7,5.7-13.9,12.6-18.5,20.6-4.6,7.8-7.6,16.4-9.2,25.3-1.5,9-1.5,17.9,0,26.5,0,.1,0,.3,0,.4,1.1,5.4,3.4,11.8,7.2,20.2.7,1.4,1.3,2.9,2,4.3-3.2-.4-6.2-.6-9.2-.6-11.6,0-22.1,3.4-31.2,10.1-3.2,2.4-6.7,5.8-9.8,10.6-3.2-2-6.8-3.1-10.6-3.1s-6.2.7-9.2,2.2c-4.5,2.1-9.5,6-16.6,12.7-1.4,1.3-3.1,2.8-5.1,4.5,2.3-7.1,5.1-14.7,8.3-22.4,4.2-10.4,9-20.7,14.3-30.7,4.8-9.1,9.2-16.1,13.1-20.6.2-.2.4-.5.6-.7,5.6-7.2,9.2-13,11.3-18.3,2.2-5.5,4.8-16.7-2-30-4.8-10.4-13.3-16.6-23-16.6s-12.4,2.6-18.2,7.6c-6.9,6.1-15.2,17.3-26.9,36.4-1.8,2.9-5.6,8.5-13.4,18.6,2.6-7.1,3.6-13.5,3.2-19.8-.3-4.6-1.3-9.5-2.8-14.7-.4-1.4-1-2.7-1.6-4-3.5-9-8.6-16.1-15.2-21.2-5.6-4.3-12-6.5-18.4-6.5s-5,.3-7.5,1c-2.5.3-5,1.1-7.3,2.4-9.5,5.5-18.9,14.1-28.1,25.6-8.3,10.5-16.2,22.5-23.2,35.9-7,13.1-13.1,27-18.2,41.4-2.8,8-5.1,15.7-6.9,23.2-3.8-2.7-8.1-4.1-12.7-4.1s-11.8,2.4-17.9,7.3c-2.9,2.3-6.4,5.3-10.7,8.8,3.8-6.9,7.8-14.4,11.9-22.2,4.3-8.2,8.5-16.2,12.5-24,4.9-9.6,7.7-16.5,8.9-22.3,1.8-8,2.7-15,2.7-21.4s-3-16.6-8.6-22.8c-3.1-3.4-6.7-6.3-10.7-8.7-3.9-2.3-8-4-12.3-5-4-1-6.8-1.3-9.4-1.3-7.7,0-15.8,3.4-25.7,10.6-4.3,3.2-8.9,7-13.8,11.5-1.3-2.5-2.9-4.9-4.8-7-3.1-3.4-6.7-6.3-10.7-8.7-3.9-2.3-8-4-12.3-5-3.9-.9-6.8-1.3-9.4-1.3-7.7,0-15.8,3.4-25.7,10.6-3,2.2-6.2,4.8-9.5,7.6-.8-11.5-5.3-19.2-9.6-24-6.2-6.9-14.1-10.5-22.7-10.5s-15.6,3-23.7,8.8c-5.4,3.9-10.9,8.8-16.5,14.8-4.4-4.7-10.3-7.4-17-7.4h-11.8c-1.4,0-3.7,0-10.9.6-5.1.4-10.2.9-15.2,1.5,0,0-12.1,1.5-12.3,1.5-.4-.4-.8-.8-1.2-1.3-2.4-2.7-6.1-6.7-11-12.1-1-1.1-2.1-2.1-3.3-3-11.1-10.9-22.3-13.3-30.1-13.3-18.7,0-37.8,12.5-58.4,38-6.4,8-13.2,17.5-20.2,28.5-6.9,11-13.3,22.6-19,34.7-3.8,8.2-7.2,16.4-10.2,24.5-2.6-1.1-5.3-1.6-7.8-1.6s-8.6.9-13.7,5.2c-2.9,2.1-6.4,5.4-11.7,10.8-2,2-4.2,4.1-6.5,6.3,1.7-4.2,3.6-8.5,5.4-12.7.7-1,1.2-2.1,1.7-3.3,2.9-6.8,7.9-16.9,14.7-30,7.1-13.6,15.2-28.5,24.1-44.3,8.9-16,18.4-32.4,28.1-48.8,9.4-16,18.4-30.1,27-42.1,5.1-7.3,8.4-12.5,10.5-16.2,3.8-6.7,5.7-13.8,5.7-21.1s0-.8,0-1.2c-.6-12.2-4.5-23.3-11.8-32.8-10.4-13.7-21.6-16.6-29.2-16.6s-16.1,5.9-22.6,12.2c-5.2,5.1-10.9,11.6-17.3,19.8-6,7.7-12.6,16.5-19.3,26.2-7,9.9-13.6,20.2-19.9,30.8-8.6,14.7-16.9,29.8-24.6,45-7.7,15.1-14.6,29.8-20.8,43.7-6.1,13.9-11.5,27.1-16,39.3-4.5,12.1-8.1,22.3-10.6,30.4-3.3,10.3-5.5,20.3-6.5,29.5-.1,1.2-.3,2.4-.4,3.6-2.7-2.8-5.8-5-9.1-6.4-2.7-1.2-5.5-1.8-8.5-1.8s-4.6.4-7.1,1.1c-4,1.3-8,3.8-12.6,8.2-1.6,1.4-3.1,2.6-4.5,3.8,1.4-4.7,3-9.7,5-14.8,2.5-6.7,5.2-13.6,8-20.6,2.6.8,4.9,1.1,6.9,1.1,4.8,0,9.7-1.6,14-4.5,1.3-.9,2.5-1.9,3.5-3.1,7.3-8,10.3-19.5,9-34-1-10.8-4.3-21.3-9.7-31.1,0-.1-.2-.3-.2-.4-7.5-13-17.4-23-29.4-29.6-11.5-6.3-24-9.5-37.2-9.5s-22.8,2.5-34.8,7.5c-11.5,4.8-22.7,11.6-33.3,20.4-10.2,8.5-20.1,18.8-29.2,30.6-9.3,12-17.2,25.4-23.6,39.8-.8,1.7-1.3,3.5-1.6,5.3-3,7.5-5.5,15-7.6,22.5-3.7-2.5-7.8-3.9-12.3-3.9s-12,2.5-18.1,7.6c-.7.6-1.6,1.3-2.5,2,2.5-5.5,5-11.2,7.6-17.1,3.7-8.4,7.2-16.5,10.4-24.2,3.8-9,6-15.6,7.1-20.7,1.8-8,2.7-15,2.7-21.4s-3.3-17.3-9.5-23.5c-3.1-3.1-6.5-5.8-10.3-8-3.9-2.3-8-4-12.3-5-4-.9-6.8-1.3-9.4-1.3-4.5,0-9.2,1.2-14.2,3.6,9.6-15.3,20-30.7,30.8-45.8.1-.2.3-.4.4-.5l10.2-15.2,4.4-5.9c5.6-7.5,9.2-12.8,11.5-16.8,3.8-6.7,5.7-13.8,5.7-21.1s0-.8,0-1.2c-.6-11.9-4.2-22.7-10.7-32.1-9.9-14.3-21.3-17.3-29.1-17.3s-17.9,5.5-33.3,21.1c-10.8,10.9-22.7,25-35.5,41.9-.9,1.2-1.8,2.6-2.4,4-17.7,25.6-33.6,53.3-47.2,82.3-13.7,29.2-27,58.9-39.2,88.4-2.6,6.1-6,14.7-10.1,25.5-4.4,11.6-7.9,23.4-10.5,35-3,13.6-3.6,25.4-1.8,36.2,3,18.2,15.6,29.5,33,29.5s16.5-3,23.4-8.7c5.5-4.5,11.5-12.4,20.2-26.3,0,0,9-14.9,9-14.9,5.7-7.4,11.2-14.5,16.7-21.2-2.5,13.8-1.9,26.3,1.8,37.3,5.1,15.2,14.6,26.1,27.7,31.6h0c1.3.7,2.7,1.3,4,1.7,3.7,1,7.5,1.5,11.3,1.5,5.9,0,12-1.2,18-3.6,8.2-3.3,16.3-8.3,24-14.9,7.4-6.3,14.3-13.9,20.3-22.4,1.4-1.9,2.7-3.9,4-5.9,3.2,17,11.3,27.7,18.5,34.2,3.5,3.7,7.3,6.5,11.3,8.6,5.1,2.6,9.2,3.8,13.3,3.8,9.3,0,19-4.7,31.6-15.2,7.1-5.9,15.5-13.8,25-23.4.3,1.1.7,2.1,1,3.2,3.4,9.3,8.3,16.9,14.7,22.7,5.2,4.7,10,7.9,14.7,9.9,5.8,2.7,11.6,4.1,17.5,4.1h0c4,0,8-.7,11.9-1.9,7.7-2.5,14.9-6.8,21.5-12.7,5.7-5.1,11-11,15.6-17.5,3.6-5.1,7-10,10.1-14.6.9,5.5,2.1,10.6,3.8,15.3,3.2,9.2,8.4,16.5,15.2,21.5,1.1,1.1,2.4,2.1,3.7,2.9,6.1,3.7,13.2,5.6,21.1,5.6s20.1-3.8,30.6-11.4c7.9-5.7,18-14.2,30.8-25.9,3.5-3.1,6.5-5.9,9.1-8.4.7,2.3,1.3,4.4,2,6.3,0,.3.2.6.3.8,2.2,5.5,5.5,11,9.9,16.7,3.9,5,8.3,9.8,13,14,5.1,4.6,10.6,8.4,16.3,11.5,7,3.7,14.1,5.6,20.9,5.6,11.8,0,23-4.1,33.4-12.1,8.3-6.4,18.4-16.9,31-32,5.9-6.9,11.6-14.9,17.1-23.7,5.4-8.7,10.2-17.7,14.2-26.7,3.8-8.4,7.3-16.7,10.3-24.5,3.4-8.8,5.6-16.7,7-24,0-.2,2.2-13.5,2.2-13.5,4.2-.9,8.1-1.7,11.6-2.5-.5.9-1,1.9-1.5,2.8-6.1,11.8-11.5,23.6-15.9,34.9-4.5,11.4-8.2,22.4-10.9,32.5-3,11.5-4.5,21.5-4.5,30.6s-.1,7.1-.2,8.4c-.5,6.7.6,12.6,3,17.5,6.2,14.2,18.5,22.3,33.9,22.3s16.5-3,23.4-8.7c3.5-2.9,9-8.5,20.2-25.4,9-12.3,18-24,26.6-34.7-1.2,5.3-1.9,10.5-2.2,15.7-.3,7.2.6,13.7,2.7,19.4,4.2,12.3,11.3,17.9,16.5,20.4,4.1,1.9,8.4,2.9,12.8,2.9s4.3-.2,6.5-.7c5.7-1.2,11-4,16-8.3,4.7-4,8.4-9,11.1-14.9,3.6-7.2,8-16.3,13-27.3.3-.6.6-1.3.9-1.9-1.1,10.7-.3,20.5,2.5,29.3,4.8,15.4,14.3,26.4,27.5,32h0c1.3.7,2.6,1.3,4,1.7,4.6,1.3,9.2,1.9,13.6,1.9s12.1-1.2,17.6-3.7c8-3.5,15.7-9.2,23-17.1,3.8-3.4,7.7-7.3,11.6-11.6,4.1-4.5,7.8-8.9,11.1-13.2.8-1,1.6-2.1,2.3-3.1.8,4.6,1.9,9,3.4,13.4,6.6,19.1,17.7,27.7,26.2,31.6,5.5,2.8,11.5,4.2,17.8,4.2,17,0,35.6-10,57.8-31.2,2.8,7.5,6.9,13.9,12.2,19.3,5,5,13.8,11.1,27.6,11.1h0c2.3,0,4.7-.2,7.2-.5,7.6-.9,15.2-5.1,23.9-13.1,6.1-5.7,12-11.9,17.5-18.6,2.9-3.6,5.7-7.1,8.2-10.6,1.7,6.1,4,11.9,7,17.5,7.3,13.5,17.9,23.7,31.6,30.2,9.8,4.6,20.4,7,31.4,7s18.9-1.5,28-4.3c9.6-3,18.5-7.9,26.6-14.5,8.2-6.7,15.1-15.1,20.4-24.8,2.1-3.9,4-8,5.5-12.4,3.3-1,6.7-2.1,10.3-3.1,5.2-1.5,10.6-2.7,16.1-3.7.4,0,.7-.1,1.1-.2,22.1-5.1,44.4-10.2,66.9-15.4,23.2-5.3,46.1-12.1,68.1-20.3,22.6-8.4,44.4-19.5,64.9-32.8,21.1-13.8,40.4-31.9,57.3-53.7,6.2-8.1,11.3-17.2,15.1-27.1,3.7-9.7,6.1-19.2,7.3-28.4,1.2-10.1.9-19.6-1.1-28.2h.1ZM1203.7,707.2c-4.8,9.1-10.2,18.1-16.3,26.8-1.2,1.7-2.4,3.3-3.5,4.7.6-1.2,1.1-2.5,1.7-3.7,3.6-7.5,7.6-14.8,11.9-21.6,4.2-6.7,7.9-12.2,10.9-16.2,0,0,.2-.2.3-.3-1.5,3.3-3.2,6.8-5.1,10.3h0Z"/>
  </g>
  <g>
    <path class="st1" d="M610.6,507.3c-1.8-12-6.9-21.5-15.5-28.7-8.6-7.1-16.9-12.3-25-15.4h.5c-8.4-2.7-17.3-4.1-26.8-4.1s-18.9,1.1-29.4,3.2c-10.5,2.1-20.8,5.8-30.7,11-10,5.2-19.4,12.3-28.4,21.2-8.9,8.9-16.2,19.9-21.8,33-.7,0-1.8-.2-3.4-.6-1.6-.4-6.2-1.5-13.9-3.5-5.2-1.2-10.9-2.5-16.8-4.1-6-1.5-11.9-3.5-17.9-5.8-21.7-7-43.6-14-65.6-21.2-22.1-7.1-44.2-12.8-66.4-16.8-22.2-4.1-44.6-5.5-67-4.4s-44.6,6.6-66.7,16.2c-7,3.1-13.5,7.4-19.4,12.8-6,5.4-10.9,11.1-14.7,17.1-3.8,6-6.4,11.9-7.6,17.7-1.2,5.8-.8,10.6,1.3,14.5,1.8,3.1,4.1,4.2,7.1,3.2,3-1,5.3-3.2,7.1-6.7,6.3-14.3,15-25.6,26-33.9,11-8.3,23.6-14.3,37.8-18,14.2-3.7,29.5-5.3,46-4.9,16.4.4,33.4,1.9,50.7,4.6,17.3,2.7,34.7,6.3,52,10.7,17.3,4.5,34,8.8,50.2,13l60.4,19.1v.6l11,2.9,4.7,1.7c-2.1,11.2-2.8,21.8-2.1,31.9.7,10.1,2.4,20.1,5,30.2,2.6,10.1,6,20.2,10.2,30.4,4.2,10.2,8.8,21.2,13.7,32.8,10.9,26.3,15.8,52.3,14.7,78-1,25.7-7.2,48-18.4,67-11.2,18.9-27.2,33.1-48.1,42.6-20.8,9.5-45.6,11.3-74.3,5.5-10.2-1.9-19.8-5.7-28.9-11.3-9.1-5.6-17-12.7-23.6-21.2-6.6-8.5-11.5-18.3-14.7-29.3-3.1-11-3.9-22.9-2.1-35.7,2.1-16.2,7.8-30.7,17.1-43.5,9.3-12.8,20.3-23.2,33.1-31.3,12.8-8.1,26.7-13.4,41.8-15.9,15-2.5,29.4-1.5,43.1,3.2,10.9,4.3,20.1,10.4,27.8,18.5,7.7,8.1,13.7,18.9,17.9,32.5,1.4,3.1,3.4,5.1,6,6.1,2.6,1,5.2,0,7.6-3.2,2.5-3.9,3.4-8.7,2.9-14.5-.5-5.8-2.3-11.7-5.2-17.7-3-6-7.1-11.6-12.3-16.8s-11.2-9.4-17.9-12.5c-8.8-3.9-17.8-6.8-27-8.7-9.3-1.9-19.7-2.9-31.2-2.9s-28.7,2.7-43.1,8.1c-16.1,6.2-30.5,15.7-43.1,28.4-10.2,10.1-18.1,20.6-23.9,31.6-5.8,11-10.1,23.9-12.9,38.5-3.9,19.3-3.7,36.9.5,52.8,4.2,15.8,11.3,29.6,21.3,41.2,10,11.6,22.6,20.7,37.8,27.2,15.2,6.6,32.1,10,50.7,10.4,35.7.4,66.4-5.5,91.9-17.7,25.6-12.2,45.1-29.8,58.6-52.8,13.5-23,20.4-50.8,20.8-83.5.3-32.7-7-69.3-22.1-109.9-3.1-8.5-6.1-17-8.9-25.5-2.8-8.5-5.2-16.4-7.1-23.8-1.9-7.3-3.1-13.5-3.7-18.5-.5-5-.3-8.1.8-9.3.7,0,4.3.3,10.8.9,6.5.6,14.4,1.3,23.9,2,6,.8,11.4,1.4,16.3,1.7,4.9.4,9.5.6,13.7.6,9.1,0,17.1-1.1,23.9-3.2,6.8-2.1,13.4-5.1,19.7-9,15.8-11.6,22.9-24.7,21.5-39.4h0ZM567.6,541.5c-4.2.8-9.5,1.5-15.8,2-6.3.6-13.3.9-21,.9s-10.6-.2-16-.6c-5.4-.4-10.1-1-13.9-1.7l-14.2-2.9,10-16.8c5.6-7.7,13.8-15,24.7-21.7,10.8-6.8,22.2-10.1,34.1-10.1s9.2.8,13.9,2.3c4.7,1.5,9,3.9,12.9,7,3.5,3.1,6.2,6.5,8.1,10.1,1.9,3.7,2.5,7.1,1.8,10.1-1,8.9-9.3,16-24.7,21.5h0Z"/>
    <path class="st1" d="M759.5,750.2c-3.7,3.1-8.8,7.3-15.5,12.8-14.7,12.4-24.5,18-29.4,16.8-3.9-.8-5.5-3.8-5-9s3.2-13.4,8.1-24.6c1-2.7,3.2-7.7,6.6-15.1,3.3-7.3,6.8-15.2,10.5-23.5,3.7-8.3,7.1-16.2,10.2-23.8,3.2-7.5,5.1-13,5.8-16.5,1.4-6.2,2.1-11.6,2.1-16.2s-1-5-2.9-7c-1.9-1.9-4-3.6-6.3-4.9-2.3-1.3-4.7-2.3-7.1-2.9-2.5-.6-4.2-.9-5.2-.9-3.5,0-8.3,2.3-14.4,7-6.1,4.6-13,10.8-20.8,18.5l-28.4,29-10,9.9c-1.8,1.9-3.5,3.8-5.2,5.5-1.8,1.7-3.5,3.2-5.2,4.3-1.8,0-2.3-1.5-1.6-4.6.7-3.1,3.2-8.5,7.3-16.2l3.2-5.2,13.7-27.2c8.8-15.8,18.4-32.2,28.9-49,10.5-16.8,21.7-33.5,33.6-50.2l10.5-15.6,4.7-6.4c4.9-6.6,8.2-11.4,10-14.5,1.8-3.1,2.6-6.2,2.6-9.3-.3-7.3-2.5-13.9-6.6-19.7s-8.5-8.7-13.4-8.7-9.8,5.1-20,15.4c-10.2,10.2-21.4,23.5-33.6,39.7v.6c-17.9,25.5-33.6,52.8-47.3,81.7-13.7,29-26.6,58.2-38.9,87.5-2.5,5.8-5.7,14-9.7,24.6-4,10.6-7.2,21.2-9.5,31.6-2.3,10.4-2.8,19.4-1.6,27,1.2,7.5,5.7,11.3,13.4,11.3s8-1.5,11.5-4.3c3.5-2.9,8.8-10,15.8-21.2l9.5-15.7c11.2-14.7,22-28,32.3-40,10.3-12,19.9-22.6,28.6-31.9,10.2-8.9,16.5-14.1,18.9-15.7,2.5-1.5,2.3,1.5-.5,9.3v-.6c-.7,1.9-2.2,5.8-4.5,11.6-2.3,5.8-4.7,12.2-7.3,19.1-2.6,7-5.2,13.6-7.6,20s-4.2,11.1-5.2,14.2c-4.2,14.3-4.7,26.2-1.6,35.7,3.2,9.5,8.8,15.7,16.8,18.8l1,.6c5.6,1.5,11.5,1.1,17.9-1.5,6.3-2.5,12.5-6.4,18.7-11.6,6.1-5.2,11.7-11.4,16.8-18.5,5.1-7.2,9.5-14.8,13.4-22.9-1.8-1.5-4.5-.8-8.1,2.3h0Z"/>
    <path class="st1" d="M963.6,758.9c-.7-.4-1.7-.4-2.9,0-1.2.4-3.1,1.7-5.5,4.1-6.7,5.8-12.3,10.2-17.1,13-4.7,2.9-8.8,4.7-12.1,5.5-3.3.8-5.9.6-7.6-.6-1.8-1.2-3-2.7-3.7-4.6-.7-2.7-.8-6.6-.3-11.6.5-5,1.7-10.8,3.4-17.4s4-13.6,6.8-21.2c2.8-7.5,5.8-15.2,8.9-22.9,6-12.4,10.1-20,12.3-22.9,2.3-2.9,3.4-3.2,3.4-.9,0,4.6,1.3,8.3,3.9,11,2.6,2.7,5.3,3.1,8.1,1.2,2.8-3.1,3.8-8.4,3.2-15.9-.7-7.5-3-14.8-6.8-21.7-5.6-9.7-12.8-16.9-21.5-21.7-8.8-4.8-18.2-7.2-28.4-7.2s-18,2-27.8,6.1c-9.8,4.1-19.3,9.9-28.4,17.4-9.1,7.5-17.8,16.6-26,27.2-8.2,10.6-15.2,22.3-20.8,35.1h.5c-3.9,9.3-7,18.5-9.5,27.5-2.5,9.1-3.7,17.1-3.7,24.1,0,15.1,4.4,26.3,13.1,33.6,2.1,2.3,4.3,4.1,6.6,5.2,2.3,1.2,3.9,1.7,5,1.7,4.5,0,11.1-3.6,19.7-10.7,8.6-7.2,19.2-17.3,31.8-30.4h-.5l33.1-34.2c-6,12.4-9.3,23-10,31.9-.7,8.9,0,16.2,2.1,22s5,10.3,8.7,13.6c3.7,3.3,6.9,5.5,9.7,6.7,5.6,2.7,11,3.2,16.3,1.5s10.2-4.6,14.7-8.7c4.5-4.1,8.7-8.7,12.3-13.9,3.7-5.2,7.1-10.2,10.2-14.8,1.8-2.3,2.2-4,1.3-4.9-.9-1-1.8-1.6-2.9-2h0ZM890.6,717.8c-7.3,8.1-14.6,15.5-21.8,22-7.2,6.6-13.8,12.1-19.7,16.5-6,4.5-10.8,7.6-14.4,9.6-3.7,1.9-5.5,1.9-5.5,0s1-4.7,3.2-9.6c2.1-4.8,4.6-10.2,7.6-15.9,3-5.8,6.2-11.8,9.7-18,3.5-6.2,6.8-11.4,10-15.7,12.2-15.8,24.9-28.2,37.8-37.1,13-8.9,23.3-12.2,31-9.9,2.8.8,4.5,1.7,5,2.6.5,1-1,4.2-4.5,9.6-2.5,3.1-7.3,9.2-14.7,18.3-7.3,9.1-15.2,18.3-23.6,27.5h0Z"/>
    <path class="st1" d="M1091.2,734.6c-1.8,1.2-5,4.2-9.7,9-4.7,4.8-10.2,9.9-16.3,15.1-6.1,5.2-12.3,9.9-18.7,13.9-6.3,4.1-11.7,6.1-16.3,6.1s-1.8-.8-2.1-2.3c0-2.7.5-6.5,1.6-11.3,1.1-4.8,2.6-10.4,4.7-16.8,2.1-6.4,4.6-13,7.3-20,2.8-7,5.8-13.9,8.9-20.9v.6c3.2-7.3,8.3-17.9,15.5-31.6,7.2-13.7,15.3-28.7,24.4-44.9,9.1-16.2,18.6-32.7,28.4-49.3,9.8-16.6,19.1-31.1,27.8-43.5,4.6-6.6,7.7-11.4,9.4-14.5s2.6-6.2,2.6-9.3c-.3-7.3-2.7-13.9-7.1-19.7-4.4-5.8-9-8.7-13.9-8.7s-4.9,2.2-9.4,6.7c-4.6,4.5-9.7,10.3-15.5,17.7-5.8,7.4-12,15.8-18.7,25.2-6.7,9.5-13,19.2-18.9,29.3-8.4,14.3-16.4,28.9-23.9,43.8-7.5,14.9-14.3,29.1-20.2,42.6-6,13.5-11.1,26.2-15.5,38-4.4,11.8-7.8,21.5-10.2,29.3-2.8,8.9-4.7,17.2-5.5,24.9-.9,7.7-1.1,15.1-.8,22,.3,8.1,1.6,15.2,3.7,21.2s5.4,10.2,10,12.5v.6c3.2,1.9,7,2.9,11.5,2.9s12.5-2.6,19.7-7.8c7.2-5.2,16.9-13.4,29.2-24.6,5.6-5,10-9.2,13.1-12.5s5.5-6,7.1-8.1c1.6-2.1,2.5-4.1,2.9-5.8.3-1.7.3-3.8,0-6.1-1.1-4.6-2.8-5.8-5.2-3.5h0Z"/>
    <path class="st1" d="M1309.2,639.5c-.3-2.7-1.8-4.1-4.5-4.1h-11.8c-1.4,0-4.6.2-9.4.6-4.9.4-9.7.9-14.4,1.5-4.7.6-8.7,1.1-11.8,1.5-3.2.4-3.7.6-1.6.6-2.8,0-4.9,0-6.3-.3-1.4-.2-2.8-.9-4.2-2-1.4-1.2-3.3-3.1-5.8-5.8-2.4-2.7-6.1-6.8-11-12.2v.6c-6-7-12.4-10.4-19.4-10.4-12.6,0-27.1,10.2-43.6,30.7-6,7.3-12.2,16.1-18.7,26.4s-12.3,21-17.6,32.2c-5.2,11.2-9.5,22.2-12.9,33-3.3,10.8-4.8,20.5-4.5,29,.3,3.9.9,7.2,1.6,9.9.7,2.7,1.4,5,2.1,7,1.4,3.5,3.7,7.2,6.8,11.3,3.2,4.1,6.7,7.8,10.5,11.3s8,6.4,12.3,8.7c4.4,2.3,8.5,3.5,12.3,3.5,7.7,0,15.1-2.7,22.1-8.1,7-5.4,16.3-15.1,27.8-29,5.2-6.2,10.3-13.2,15.2-21.2,4.9-7.9,9.2-15.9,12.9-24.1s6.9-15.8,9.7-23.2c2.8-7.3,4.7-13.9,5.8-19.7l4.2-26.1,7.3-3.5c15.4-3.1,27.1-5.8,35.2-8.1,8.1-2.3,11.9-5.6,11.6-9.9h0ZM1233.3,690c-3,8.9-7.1,18.4-12.3,28.4-5.2,10.1-11.2,19.8-17.9,29.3-6.7,9.5-12.8,16.5-18.4,21.2-8.1,7-14.8,11.1-20.2,12.5-5.4,1.4-8.5-1.6-9.2-9-.7-6.6.3-14.1,2.9-22.6,2.6-8.5,5.9-16.9,10-25.2,4-8.3,8.4-16.2,13.1-23.8,4.7-7.5,8.8-13.6,12.3-18.3,9.1-10.8,17.5-16.9,25.2-18.3,7.7-1.3,13.3,1.1,16.8,7.2,1.4,3.5.6,9.7-2.4,18.5h0Z"/>
    <path class="st1" d="M1533.4,750.2c-3.9,3.1-8.9,7.3-15.2,12.8-8.1,6.2-14.4,10.7-18.9,13.6-4.6,2.9-8.2,4-11,3.2-3.9-.8-6.5-3.8-7.9-9s.3-13.4,5.2-24.6c1.1-2.7,3.6-7.7,7.6-15.1,4-7.3,8.2-15.2,12.6-23.5,4.4-8.3,8.5-16.2,12.3-23.8,3.8-7.5,6.1-13,6.8-16.5,1.4-6.2,2.1-11.6,2.1-16.2s-.9-5-2.6-7c-1.8-1.9-3.8-3.6-6-4.9-2.3-1.3-4.7-2.3-7.1-2.9-2.4-.6-4.2-.9-5.2-.9-3.5,0-8.4,2.3-14.7,7-6.3,4.6-13.3,10.8-21,18.5l-28.4,29-6.8,6.4c3.2-6.6,5.9-12.4,8.4-17.4,2.4-5,4-8.9,4.7-11.6,1.4-6.2,2.1-11.6,2.1-16.2s-.9-5-2.6-7c-1.8-1.9-3.8-3.6-6-4.9-2.3-1.3-4.7-2.3-7.1-2.9-2.4-.6-4.2-.9-5.2-.9-3.5,0-8.4,2.3-14.7,7-6.3,4.6-13.3,10.8-21,18.5l-28.4,29-11,9.9h1.1c-6,6.6-9,8.8-9.2,6.7-.2-2.1,3.4-10,10.8-23.5l3.2-5.2c7-13.5,11.5-24.9,13.4-34.2,1.9-9.3,1-16-2.9-20.3-5.2-5.8-12.4-5.4-21.5,1.2-9.1,6.6-19.1,17.4-29.9,32.5-7,10.4-13.4,21.3-19.2,32.5-5.8,11.2-10.8,22.1-15,32.8-4.2,10.6-7.5,20.6-10,29.9-2.4,9.3-3.7,17.4-3.7,24.3s0,7.6-.3,10.1c-.2,2.5,0,4.3.8,5.5,2.8,7,8.2,10.4,16.3,10.4s8.1-1.5,11.6-4.3c3.5-2.9,8.9-10,16.3-21.2,13.3-18.2,26.2-34.6,38.6-49.3,12.4-14.7,23.7-27.4,33.9-38.3,10.2-8.9,16.4-14.1,18.9-15.7,2.4-1.5,2.3,1.5-.5,9.3v-.6c-.7,1.5-1.8,4.5-3.4,8.7-1.6,4.3-3.5,9.1-5.8,14.5-2.3,5.4-4.6,11-6.8,16.8-2.3,5.8-4.1,11-5.5,15.7-1.1,2.7-2.3,6-3.7,9.9-1.4,3.9-2.6,7.9-3.7,12.2-1.1,4.3-1.7,8.4-1.8,12.5-.2,4.1.3,7.5,1.3,10.2,1.4,4.3,3.3,7,5.8,8.1,2.4,1.2,5,1.5,7.6.9s5.2-1.9,7.6-4.1c2.4-2.1,4.4-4.7,5.8-7.8,3.5-7,7.8-15.9,12.9-27,5.1-11,13-23.1,23.9-36.2l11-12.8,3.2-3.5-.5.6c1.8-1.9,3.5-3.9,5.2-5.8,1.8-1.9,3.5-3.9,5.2-5.8,10.2-8.9,16.4-14.1,18.9-15.7,2.4-1.5,2.3,1.5-.5,9.3v-.6c-.7,1.9-2.2,5.8-4.5,11.6-2.3,5.8-4.7,12.2-7.3,19.1-2.6,7-5.2,13.6-7.6,20s-4.2,11.1-5.2,14.2c-4.2,14.3-4.8,26.2-1.8,35.7,3,9.5,8.5,15.7,16.5,18.8l1.1.6c7,1.9,13.4,1.6,19.2-.9,5.8-2.5,11.5-6.9,17.1-13,3.5-3.1,7.1-6.7,10.8-10.7s7-8,10-11.9c3-3.9,5.4-7.4,7.3-10.7,1.9-3.3,2.9-5.7,2.9-7.2-1.8-1.5-4.6-.8-8.4,2.3h0Z"/>
    <path class="st1" d="M1744.1,745.6c-2.4,1.2-6.3,4.3-11.6,9.3-2.1,1.9-4.7,4.2-7.6,6.7-3,2.5-6,5-9.2,7.5-3.2,2.5-6.1,4.7-8.9,6.7-2.8,1.9-4.9,3.1-6.3,3.5-7.7,2.3-11.6-2.3-11.6-13.9s1.5-12.6,4.5-22.6,6.7-20.7,11.3-31.9c4.6-11.2,9.6-22.1,15.2-32.8,5.6-10.6,10.8-18.8,15.8-24.6,4.2-5.4,6.9-9.7,8.1-12.8,1.2-3.1.8-6.6-1.3-10.4-2.4-5.8-6.2-6.5-11.3-2-5.1,4.5-12.7,15-22.8,31.6-3.2,5-8.4,12.3-15.8,21.7-7.3,9.5-15.2,19.2-23.6,29.3-8.4,10.1-16.5,19.3-24.4,27.8-7.9,8.5-14.1,14.5-18.7,18-11.6,7.7-17.3,9.3-17.3,4.6s2.3-9.1,6.8-20.3c4.6-11.2,11.9-25.3,22.1-42.3,6.7-10.8,11.7-19.4,15.2-25.8s5.9-11.5,7.3-15.4c1.4-3.9,2-7.2,1.8-9.9-.2-2.7-.8-5.8-1.8-9.3v.6c-2.1-6.6-5.2-11.4-9.2-14.5-4-3.1-8.3-3.5-12.9-1.2v-.6c-7.3,4.3-14.8,11.1-22.3,20.6-7.5,9.5-14.5,20.3-21,32.5-6.5,12.2-12.1,24.9-16.8,38.3-4.7,13.3-7.8,25.8-9.2,37.4-1.8,11.2-1,21.7,2.4,31.3,3.3,9.7,8.5,16,15.5,19.1,14.7,7.7,36.2-3.5,64.6-33.6l20.2-27c-1.2,5.1-2,11.1-2.3,18.1-.3,7.5.3,14.8,1.8,21.7,1.6,7,4.6,12.7,8.9,17.1,4.4,4.4,10.8,6.1,19.2,4.9,3.5-.4,8-3.1,13.4-8.1,5.4-5,10.6-10.5,15.5-16.5s9.2-11.8,12.9-17.4c3.7-5.6,5.7-9.4,6-11.3.7-3.9-.2-5.2-2.6-4.1h0ZM1672.7,739.3l.5-.6c0,.7-.2.9-.5.6Z"/>
    <path class="st1" d="M2187.9,573.9c-1.3-5.8-3.7-9.8-7.2-12.1-2.9-1.8-5.4-1.5-7.6.9-2.2,2.4-3.4,5.6-3.5,9.6.4,15.9-2.6,30.4-8.8,43.5s-14.9,24.9-26,35.5c-11,10.6-23.9,20-38.6,28.2-14.7,8.2-30.3,15.6-46.8,22.2s-33.3,12.4-50.5,17.5c-17.2,5.1-33.8,9.9-49.8,14.5l-11.9,2.8c-.2-.3-.5-.6-.9-.7-1.1-.4-3.5,0-7.3,1.2-1.1.4-3.4.7-7.1.9-3.7.2-7.8.5-12.3.9-4.6.4-9.2.6-13.9.6s-8.7-.2-11.8-.6c-1.1-3.9-3-9.2-5.8-15.9-2.8-6.8-5.1-12.5-6.8-17.1l-6.8-17.4-5.8-16.8c-1.8-7-1.6-13.2.5-18.8,2.1-5.6,5.1-9.9,8.9-12.8,3.8-2.9,8.2-4.3,13.1-4.3s9.4,2.3,13.7,7c3.2,3.5,4.5,7.2,3.9,11-.5,3.9-1.1,7.2-1.8,9.9-.7,3.9.2,5.7,2.6,5.5,2.4-.2,4.9-1.6,7.3-4.3,4.2-3.9,5.8-10,4.7-18.5-.3-3.1-1.1-6.1-2.4-9-1.2-2.9-3.2-5.9-6-9-4.6-4.2-10.8-7.6-18.7-10.2-7.9-2.5-17.8-2.4-29.7.3-7.3,1.9-13.8,4.9-19.2,9-5.4,4.1-9.7,8.8-12.9,14.2-3.2,5.4-5.2,11.2-6.3,17.4-1.1,6.2-1.1,12.2,0,18,.7,3.5,2.5,8.5,5.5,15.1,3,6.6,6.2,13.1,9.7,19.7l13.1,23.8c-12.3-1.5-22-3.2-29.2-4.9-7.2-1.7-13.4-2.6-18.7-2.6-7.7,0-14.4,2.1-20.2,6.4-5.8,4.3-8.8,12.2-9.2,23.8-.3,11.2,2,21.5,7.1,31,5.1,9.5,12.5,16.5,22.3,21.2,7.3,3.5,15.2,5.2,23.6,5.2s15.2-1.2,22.6-3.5,14.1-6,20.2-11c6.1-5,11.2-11.2,15.2-18.5,3-5.5,5.2-11.8,6.6-18.9,1.4-.4,2.9-.9,4.6-1.4,5.1-1.7,10.7-3.4,16.6-5.1,5.9-1.7,12-3.1,18.2-4.1,22.1-5.1,44.4-10.2,66.9-15.4,22.5-5.1,44.4-11.7,65.8-19.6,21.4-8,41.7-18.3,61.1-30.9,19.4-12.7,36.8-29,52.2-49,4.9-6.4,8.9-13.5,11.9-21.4,3-7.9,5-15.5,5.9-22.8.9-7.3.7-13.8-.6-19.6h0ZM1844.9,768.5c-2.1,4.1-4.8,7.3-8.1,9.9-3.3,2.5-7,4.3-11,5.2-4,1-7.8,1.1-11.3.3-7.3-1.5-13.1-5.3-17.1-11.3-4-6-6.4-11.7-7.1-17.1-.3-3.5,2.1-5.7,7.3-6.7,5.2-1,11.3-1.2,18.1-.6,6.8.6,13.5,1.5,20,2.9,5.9,1.2,9.8,2.1,11.8,2.5h0c.3,5.9-.5,10.8-2.6,14.9h0Z"/>
  </g>
</svg>